<svg xmlns="http://www.w3.org/2000/svg" width="28.758" height="20.132" viewBox="0 0 28.758 20.132"><g transform="translate(0 0)"><path d="M34.758,19.066A1.438,1.438,0,0,1,33.32,20.5h-22.8l5.219,6.269a1.44,1.44,0,0,1-2.214,1.84L6.331,19.986A1.711,1.711,0,0,1,6.2,19.77a.247.247,0,0,0-.1-.187,1.438,1.438,0,0,1-.1-.518H6a1.438,1.438,0,0,1,.1-.518.182.182,0,0,1,.1-.187,1.711,1.711,0,0,1,.129-.216L13.52,9.518a1.44,1.44,0,0,1,2.214,1.84l-5.219,6.269h22.8A1.438,1.438,0,0,1,34.758,19.066Z" transform="translate(-6 -8.999)" fill="#fff"/></g></svg>