<svg xmlns="http://www.w3.org/2000/svg" xmlns:xlink="http://www.w3.org/1999/xlink" width="360" height="407" viewBox="0 0 360 407"><defs><clipPath id="a"><rect width="360" height="407" fill="#fff" stroke="#707070" stroke-width="1"/></clipPath></defs><g clip-path="url(#a)"><g transform="translate(-690.633 -1756.693)"><g transform="translate(73.172 70.457)"><path d="M1894.062,1073,1655.305,935.149c-32.441-147.689-106.279-283.327-215.784-392.819-110.514-110.514-247.648-184.693-396.936-216.649L907.039,90.923c-15.748-27.288-55.113-27.288-70.875,0L700.145,326.52C552.391,358.935,416.713,432.8,307.182,542.33,162.444,687.055,79.991,877.453,73.172,1081.015c7.723,70.547,44.649,184.156,199.9,206.264,163.359-3.934,200.9-194.685,149.486-155.491-1.941.525-3.934,1.075-6.006,1.665C288.942,1169.919,280.629,1007.57,280.576,965.57c64.5-267.474,305.776-466.8,592.776-466.8,336.211,0,609.73,273.519,609.73,609.73s-273.519,609.73-609.73,609.73c-48.622,0-95.3-6.879-140.666-17.684a11.414,11.414,0,0,1-2.119-.6s-39.338-15.014-67.5-44.268c-21.977-28.35-34.775-72.71-9.992-140.621,56.254-48.648-140.582-28.009-158.546,35.811-2.019,10.189-3.777,20.5-5.088,30.946-.262-.21-.511-.433-.76-.643a48.517,48.517,0,0,0-.144,7.92l-2.465,3.58a313.867,313.867,0,0,0,6.687,81.378c.892,2.832,1.81,5.835,2.741,9.061,39.889,138.182,147.335,188.942,185.126,202.841q8.064,1.987,16.168,3.829l139.375,241.393c15.762,27.288,55.126,27.288,70.875,0l138.9-240.567c147.978-32.349,283.891-106.253,393.579-215.928,109.531-109.544,183.4-245.222,215.81-392.977l238.73-137.828C1921.337,1128.129,1921.337,1088.751,1894.062,1073Z" transform="translate(-73.172 -70.457)" fill="#0094cd"/></g></g></g></svg>