<svg xmlns="http://www.w3.org/2000/svg" width="214.354" height="251.789" viewBox="0 0 214.354 251.789"><g transform="translate(-64.33 -37.582)"><g transform="translate(151.693 102.847)" opacity="0.53"><path d="M264.376,336.674c-27.881-11.037-40.665-40.766-46.332-68.87-.947-4.691-2.622-9.476-1.377-14.085s5.75-8.624,10.382-7.651c3.842.807,6.3,4.47,9.024,7.336a27.982,27.982,0,0,0,13.387,7.836c3.328.835,7.218.905,9.761-1.4,3.488-3.167,2.646-8.825,1.52-13.448q-3.152-12.921-6.3-25.841c-1.127-4.621-2.261-9.345-1.864-14.079s2.611-9.57,6.721-11.848,10.158-1.031,12.163,3.28c.835,1.793.914,3.842,1.5,5.732s1.984,3.8,3.936,3.907c1.976.1,3.517-1.647,4.579-3.33,3.669-5.807,5.483-12.6,7.093-19.3s3.1-13.533,6.221-19.658,8.164-11.588,14.7-13.536,14.573.469,17.793,6.579c3.228,6.127.991,13.651-1.9,19.916a106.2,106.2,0,0,1-16.648,25.608c-1.214,1.382-2.53,2.876-2.681,4.723-.273,3.324,3.378,5.7,6.665,5.987,3.723.331,7.382-.916,11.091-1.347s8,.233,10.172,3.32c3.018,4.281.238,10.179-2.885,14.35a90.966,90.966,0,0,1-22.608,21.334c-3.109,2.054-6.433,4-8.612,7.04s-2.848,7.6-.416,10.463,6.94,2.9,10.349,1.4,6.142-4.2,9.236-6.289c5.791-3.91,14.11-5.42,19.489-.889,3.535,2.979,4.964,7.954,4.631,12.583s-2.2,8.99-4.3,13.1c-7.357,14.38-18.124,27.1-31.668,35.722s-26.885,13.244-42.822,11.36" transform="translate(-216.224 -151.054)" fill="#e4eaf2"/><g transform="translate(51.203 2.475)"><path d="M305.247,319.318c.766-15.044,2.973-31.464,5.872-48.559q1.11-6.405,2.193-12.649c.729-4.15,1.452-8.266,2.408-12.247a212.8,212.8,0,0,1,6.8-22.565c2.511-7.073,5.152-13.693,7.666-19.865s4.994-11.875,7.463-16.979a168.9,168.9,0,0,1,13.43-23.2c1.794-2.605,3.251-4.58,4.258-5.906l1.153-1.5a3.583,3.583,0,0,1,.416-.492,3.305,3.305,0,0,1-.345.546l-1.084,1.552c-.958,1.359-2.37,3.364-4.119,5.995a178.581,178.581,0,0,0-13.153,23.276c-2.427,5.107-4.853,10.813-7.348,16.986s-5.1,12.8-7.581,19.862a215.2,215.2,0,0,0-6.727,22.492c-.945,3.961-1.658,8.041-2.386,12.2s-1.448,8.375-2.188,12.644c-2.895,17.082-5.121,33.458-5.929,48.455" transform="translate(-305.247 -155.358)" fill="#435e77"/></g><g transform="translate(43.066 43.567)"><path d="M309.945,276.123a9.657,9.657,0,0,1-.921-1.867c-.546-1.222-1.279-3.014-2.151-5.243-1.747-4.453-3.951-10.685-6.355-17.566s-4.69-13.067-6.5-17.481c-.9-2.209-1.645-3.991-2.176-5.216a9.53,9.53,0,0,1-.735-1.948,9.462,9.462,0,0,1,1.042,1.8c.627,1.183,1.462,2.931,2.436,5.117,1.964,4.368,4.352,10.543,6.758,17.434,2.355,6.8,4.484,12.943,6.111,17.641.748,2.118,1.381,3.9,1.888,5.334A9.5,9.5,0,0,1,309.945,276.123Z" transform="translate(-291.1 -226.802)" fill="#435e77"/></g><g transform="translate(61.91 67.639)"><path d="M380.736,268.666a13.225,13.225,0,0,1-2.306.847c-1.495.5-3.661,1.207-6.309,2.169-5.311,1.881-12.556,4.736-20.412,8.237s-14.822,7-19.791,9.664c-2.5,1.315-4.485,2.435-5.866,3.2a13.174,13.174,0,0,1-2.187,1.121,13,13,0,0,1,2.012-1.418c1.33-.857,3.278-2.061,5.742-3.453,4.906-2.814,11.857-6.4,19.733-9.925a215.608,215.608,0,0,1,20.568-8.019c2.683-.889,4.885-1.51,6.415-1.907A12.947,12.947,0,0,1,380.736,268.666Z" transform="translate(-323.863 -268.655)" fill="#435e77"/></g><g transform="translate(3.681 96.268)"><path d="M270.617,387.33c-.024.018-.223-.2-.58-.629l-1.528-1.912c-1.32-1.666-3.167-4.126-5.409-7.2-4.488-6.136-10.421-14.808-16.838-24.465s-12.266-18.375-16.619-24.6l-5.178-7.355c-.56-.8-1.02-1.465-1.4-2.009a3.136,3.136,0,0,1-.44-.737,3.181,3.181,0,0,1,.581.63l1.528,1.91c1.32,1.666,3.167,4.126,5.409,7.2,4.489,6.136,10.421,14.808,16.841,24.469s12.263,18.372,16.617,24.594c2.128,3.02,3.878,5.507,5.178,7.353.56.8,1.02,1.467,1.4,2.01A3.2,3.2,0,0,1,270.617,387.33Z" transform="translate(-222.624 -318.43)" fill="#435e77"/></g><g transform="translate(51.674 120.918)"><path d="M379.1,361.292a3.314,3.314,0,0,1-.708.51l-2.114,1.314-7.817,4.753c-6.6,4.015-15.652,9.665-25.646,15.921s-19.109,11.832-25.794,15.71c-3.342,1.941-6.062,3.484-7.963,4.511-.881.469-1.606.855-2.2,1.171a3.242,3.242,0,0,1-.8.355,3.325,3.325,0,0,1,.707-.511l2.115-1.313,7.816-4.753c6.6-4.014,15.653-9.665,25.65-15.923s19.105-11.829,25.79-15.708c3.342-1.941,6.062-3.484,7.964-4.512.881-.469,1.6-.856,2.2-1.17A3.174,3.174,0,0,1,379.1,361.292Z" transform="translate(-306.067 -361.289)" fill="#435e77"/></g></g><g transform="translate(66.569 184.395)" opacity="0.53"><g transform="translate(0)"><path d="M112.6,397.311c15.692-6.211,22.887-22.944,26.077-38.762.533-2.641,1.476-5.333.775-7.927s-3.236-4.854-5.843-4.307c-2.163.454-3.547,2.516-5.079,4.129a15.75,15.75,0,0,1-7.535,4.41c-1.873.47-4.062.51-5.493-.789-1.964-1.782-1.49-4.967-.855-7.569q1.774-7.272,3.546-14.544a24.985,24.985,0,0,0,1.049-7.924c-.224-2.665-1.47-5.386-3.783-6.668s-5.718-.58-6.846,1.846a24.709,24.709,0,0,0-.844,3.226c-.329,1.065-1.116,2.141-2.215,2.2s-1.98-.927-2.577-1.874c-2.065-3.268-3.086-7.089-3.992-10.864s-1.743-7.617-3.5-11.064-4.595-6.522-8.275-7.618-8.2.263-10.014,3.7-.558,7.683,1.069,11.209a59.761,59.761,0,0,0,9.37,14.413,4.918,4.918,0,0,1,1.509,2.658c.154,1.871-1.9,3.205-3.751,3.37-2.1.186-4.154-.515-6.242-.758s-4.5.131-5.725,1.869c-1.7,2.41-.134,5.729,1.624,8.077a51.214,51.214,0,0,0,12.724,12.008,17.272,17.272,0,0,1,4.847,3.962c1.226,1.713,1.6,4.276.235,5.889s-3.906,1.634-5.825.785-3.457-2.364-5.2-3.54c-3.259-2.2-7.941-3.05-10.968-.5a8.474,8.474,0,0,0-2.607,7.082,19.526,19.526,0,0,0,2.422,7.375,51.48,51.48,0,0,0,17.824,20.105c7.621,4.85,15.132,7.454,24.1,6.393" transform="translate(-68.222 -292.838)" fill="#e4eaf2"/></g><g transform="translate(13.578 1.393)"><path d="M120.908,387.542a239.792,239.792,0,0,0-3.3-27.331q-.625-3.605-1.234-7.119c-.411-2.336-.817-4.652-1.356-6.893a119.73,119.73,0,0,0-3.829-12.7c-1.413-3.981-2.9-7.707-4.315-11.181s-2.811-6.684-4.2-9.557a95.029,95.029,0,0,0-7.559-13.055c-1.009-1.467-1.83-2.578-2.4-3.324l-.649-.844a2.02,2.02,0,0,0-.234-.277,1.839,1.839,0,0,0,.194.308l.61.873c.539.765,1.334,1.893,2.318,3.374a100.415,100.415,0,0,1,7.4,13.1c1.366,2.874,2.731,6.086,4.136,9.56s2.868,7.2,4.267,11.179a121.181,121.181,0,0,1,3.786,12.659c.532,2.229.933,4.526,1.342,6.867l1.231,7.116a245.943,245.943,0,0,1,3.338,27.272" transform="translate(-91.83 -295.261)" fill="#435e77"/></g><g transform="translate(36.624 24.521)"><path d="M131.9,363.231a5.429,5.429,0,0,0,.518-1.051c.308-.687.719-1.7,1.21-2.951.984-2.507,2.224-6.014,3.577-9.886s2.639-7.355,3.659-9.839c.506-1.243.926-2.247,1.225-2.936a5.377,5.377,0,0,0,.414-1.1,5.344,5.344,0,0,0-.587,1.014c-.353.665-.823,1.65-1.371,2.88-1.105,2.459-2.45,5.934-3.8,9.812l-3.439,9.929c-.421,1.192-.777,2.2-1.062,3A5.321,5.321,0,0,0,131.9,363.231Z" transform="translate(-131.899 -335.471)" fill="#435e77"/></g><g transform="translate(4.62 38.069)"><path d="M76.255,359.034a7.478,7.478,0,0,0,1.3.477c.841.281,2.061.679,3.551,1.221,2.989,1.058,7.067,2.666,11.489,4.636s8.343,3.94,11.139,5.44c1.4.74,2.524,1.37,3.3,1.8a7.314,7.314,0,0,0,1.231.631,7.359,7.359,0,0,0-1.133-.8c-.748-.483-1.845-1.161-3.231-1.943-2.761-1.583-6.674-3.6-11.106-5.586A121.419,121.419,0,0,0,81.217,360.4c-1.51-.5-2.749-.85-3.61-1.073A7.343,7.343,0,0,0,76.255,359.034Z" transform="translate(-76.255 -359.028)" fill="#435e77"/></g><g transform="translate(42.389 54.182)"><path d="M141.923,425.821a1.787,1.787,0,0,0,.327-.354l.86-1.076c.743-.937,1.782-2.322,3.044-4.05,2.527-3.454,5.865-8.334,9.477-13.769s6.9-10.343,9.354-13.844l2.914-4.139.787-1.131a1.756,1.756,0,0,0,.248-.415,1.823,1.823,0,0,0-.327.355l-.86,1.075c-.743.938-1.782,2.323-3.044,4.05-2.526,3.453-5.865,8.334-9.479,13.772s-6.9,10.34-9.352,13.842c-1.2,1.7-2.183,3.1-2.914,4.138l-.787,1.131A1.781,1.781,0,0,0,141.923,425.821Z" transform="translate(-141.922 -387.042)" fill="#435e77"/></g><g transform="translate(1.285 68.056)"><path d="M70.456,411.167a1.855,1.855,0,0,0,.4.286l1.19.74,4.4,2.675c3.715,2.26,8.81,5.439,14.434,8.96s10.755,6.659,14.518,8.842c1.881,1.092,3.411,1.961,4.482,2.539l1.236.659a1.813,1.813,0,0,0,.447.2,1.84,1.84,0,0,0-.4-.288l-1.19-.739-4.4-2.674c-3.715-2.259-8.81-5.44-14.436-8.962s-10.753-6.658-14.515-8.841c-1.881-1.093-3.411-1.961-4.482-2.539-.5-.264-.9-.483-1.236-.659A1.77,1.77,0,0,0,70.456,411.167Z" transform="translate(-70.455 -411.165)" fill="#435e77"/></g></g><g transform="translate(64.33 75.849)"><path d="M110.057,126.978a22.863,22.863,0,1,0-42.571,11.55h-.012l.065.086c.877,1.478,1.975,2.534,3.085,4.086L83.9,160.285a4.129,4.129,0,0,0,6.59,0l13.054-17.294a49.308,49.308,0,0,0,3.32-4.4l.047-.063H106.9A22.717,22.717,0,0,0,110.057,126.978Zm-22.863,9.954A10.062,10.062,0,1,1,97.256,126.87,10.062,10.062,0,0,1,87.194,136.932Z" transform="translate(-64.33 -104.115)" fill="#435e77"/></g><g transform="translate(200.091 37.582)"><path d="M325.028,49.911a12.329,12.329,0,1,0-22.956,6.228h-.007l.035.047c.473.8,1.065,1.367,1.663,2.2l7.158,9.483a2.227,2.227,0,0,0,3.554,0l7.039-9.326a26.661,26.661,0,0,0,1.79-2.373l.025-.034h0A12.249,12.249,0,0,0,325.028,49.911ZM312.7,55.279a5.426,5.426,0,1,1,5.426-5.426A5.426,5.426,0,0,1,312.7,55.279Z" transform="translate(-300.37 -37.582)" fill="#fdfeff"/></g><path d="M104.082,159.3h31.059V126.834h63.025V107.318h29.864l.191-12.766" transform="translate(-16.888 -24.203)" fill="none" stroke="#fdfeff" stroke-miterlimit="10" stroke-width="1"/><g transform="translate(122.093 60.79)"><g transform="translate(0 2.443)"><g transform="translate(0 1.768)"><g transform="translate(4.174)"><path d="M172.106,111.289,175.89,164.9a16.714,16.714,0,0,0,16.672,15.537h0a16.714,16.714,0,0,0,16.678-17.807c-.335-5.1-.639-9.281-.639-9.281s12.978-2.018,13.138-14.993c.093-7.495-1.2-24.5-2.308-37.53a17.017,17.017,0,0,0-16.962-15.569h-7.839A24.014,24.014,0,0,0,172.106,111.289Z" transform="translate(-172.016 -85.253)" fill="#f8fcff"/><g transform="translate(19.691 63.097)"><path d="M223.168,199.765a30.176,30.176,0,0,1-16.916-4.808s4,9.338,16.946,8.17Z" transform="translate(-206.252 -194.957)" fill="#dae8ef"/></g></g><g transform="translate(21.168 19.644)"><g transform="translate(1.26 6.989)"><g transform="translate(19.601)"><g transform="translate(1.827 2.935)"><path d="M244.707,138.336a1.854,1.854,0,0,1-1.787,1.87,1.773,1.773,0,0,1-1.91-1.671,1.854,1.854,0,0,1,1.785-1.871A1.774,1.774,0,0,1,244.707,138.336Z" transform="translate(-241.009 -136.661)" fill="#263238"/></g><path d="M245.156,133.507c-.23.242-1.633-.8-3.628-.792-1.992-.023-3.455,1-3.671.759-.106-.109.127-.545.764-1.008a5.086,5.086,0,0,1,2.939-.906,4.887,4.887,0,0,1,2.888.932C245.062,132.962,245.27,133.4,245.156,133.507Z" transform="translate(-237.833 -131.559)" fill="#263238"/></g><g transform="translate(0 0.372)"><g transform="translate(1.972 2.562)"><path d="M210.88,138.336a1.854,1.854,0,0,1-1.787,1.87,1.772,1.772,0,0,1-1.91-1.671,1.854,1.854,0,0,1,1.785-1.871A1.774,1.774,0,0,1,210.88,138.336Z" transform="translate(-207.182 -136.661)" fill="#263238"/></g><path d="M211.078,134.154c-.23.242-1.636-.8-3.629-.791-1.991-.024-3.455,1-3.672.758-.105-.108.126-.544.766-1.008a5.085,5.085,0,0,1,2.939-.906,4.888,4.888,0,0,1,2.888.932C210.982,133.609,211.191,134.046,211.078,134.154Z" transform="translate(-203.754 -132.206)" fill="#263238"/></g><g transform="translate(13.627 0.493)"><path d="M228.38,149.031a13.205,13.205,0,0,1,3.239-.584c.509-.053.991-.154,1.077-.5a2.585,2.585,0,0,0-.34-1.509q-.718-1.848-1.506-3.877c-2.091-5.52-3.6-10.059-3.382-10.142s2.1,4.325,4.191,9.846q.755,2.042,1.442,3.9a2.95,2.95,0,0,1,.264,2,1.277,1.277,0,0,1-.837.745,3.477,3.477,0,0,1-.864.12A12.928,12.928,0,0,1,228.38,149.031Z" transform="translate(-227.446 -132.416)" fill="#263238"/></g><g transform="translate(8.369 18.487)"><path d="M218.628,163.7c.324-.019.328,2.145,2.181,3.682s4.157,1.3,4.173,1.6c.031.136-.514.42-1.487.447a5.389,5.389,0,0,1-3.484-1.214,4.7,4.7,0,0,1-1.69-3.087C218.239,164.225,218.48,163.689,218.628,163.7Z" transform="translate(-218.305 -163.702)" fill="#263238"/></g></g><path d="M210.662,120.9c-.2.542-2.188.286-4.527.568-2.346.235-4.232.92-4.542.434-.139-.233.19-.743.953-1.268a7.928,7.928,0,0,1,6.909-.762C210.314,120.219,210.746,120.645,210.662,120.9Z" transform="translate(-201.562 -119.408)" fill="#263238"/><g transform="translate(20.662 1.101)"><path d="M244.277,123.387c-.351.453-1.724-.017-3.377-.04-1.651-.08-3.05.3-3.372-.169-.141-.23.079-.684.69-1.112a4.89,4.89,0,0,1,5.438.168C244.239,122.7,244.431,123.166,244.277,123.387Z" transform="translate(-237.487 -121.322)" fill="#263238"/></g></g><g transform="translate(0 35.367)"><path d="M173.4,147.152c-.221-.1-8.915-2.637-8.631,6.234s9.131,6.757,9.138,6.5S173.4,147.152,173.4,147.152Z" transform="translate(-164.759 -146.743)" fill="#f8fcff"/><g transform="translate(2.259 2.904)"><path d="M172.755,158.758c-.04-.027-.151.113-.409.241a1.544,1.544,0,0,1-1.154.061c-.948-.314-1.785-1.777-1.879-3.374a5.1,5.1,0,0,1,.362-2.226,1.787,1.787,0,0,1,1.124-1.223.787.787,0,0,1,.925.395c.127.244.076.423.124.437.026.021.186-.154.1-.519a.984.984,0,0,0-.366-.544,1.166,1.166,0,0,0-.862-.2,2.174,2.174,0,0,0-1.57,1.427,5.254,5.254,0,0,0-.457,2.49c.114,1.785,1.082,3.429,2.377,3.759a1.656,1.656,0,0,0,1.406-.28C172.746,158.974,172.787,158.773,172.755,158.758Z" transform="translate(-168.687 -151.792)" fill="#dae8ef"/></g></g></g><g transform="translate(2.138)"><path d="M170.042,119.422a4.662,4.662,0,0,1,4.271,2.188c.577,1.267.7,2.7,1.279,3.97s1.875,2.413,3.23,2.093a2.73,2.73,0,0,0,1.849-2.024,7.491,7.491,0,0,0,.026-2.861c-.522-4.143-1.394-8.251-1.56-12.423s.427-8.507,2.618-12.062,6.215-6.169,10.378-5.833c2.757.223,5.285,1.66,8.024,2.044a10.835,10.835,0,0,0,9-3.006c.3-.3,1.683-1.209,1.683-1.209a5.105,5.105,0,0,0-.934-2.744c-5.434-5.025-15.226-6.428-22.4-4.621s-13.906,6.874-16.994,13.6-2.172,16.081-.471,22.888" transform="translate(-168.477 -82.18)" fill="#263238"/></g></g><g transform="translate(0.766)"><path d="M217.058,95.709s-34.041-10.952-48.767,18.5c0,0-2.2-7.371-2.2-11.321,0-2.638,1.579-18.353,17.748-23.3C183.839,79.591,208.2,70.294,217.058,95.709Z" transform="translate(-166.091 -77.932)" fill="#d4e4fc"/></g><g transform="translate(21.824 12.419)"><path d="M203.363,105.618a7.4,7.4,0,0,0,11.787,1.072,4.365,4.365,0,0,0,8.252-.433,9.908,9.908,0,0,0,3.311,2.419,3.382,3.382,0,0,0,3.782-.79,3.3,3.3,0,0,0-.235-3.9,8.064,8.064,0,0,0-3.45-2.323,24.929,24.929,0,0,0-12.845-1.947,17.309,17.309,0,0,0-11.263,6.133" transform="translate(-202.703 -99.524)" fill="#263238"/></g><g transform="translate(0.766)"><path d="M217.058,95.709a15.82,15.82,0,0,0-10.824-4.915c-10.041-.443-28.836,5.2-37.942,23.415,0,0-2.2-7.371-2.2-11.321,0-2.638,1.579-18.353,17.748-23.3C183.839,79.591,208.2,70.294,217.058,95.709Z" transform="translate(-166.091 -77.932)" fill="#435e77"/></g><g transform="translate(4.389 0.718)"><path d="M172.39,111.291a64.1,64.1,0,0,1,19.832-19c7.824-4.888,20.764-9.723,29.681-12.09a19.386,19.386,0,0,1,8.2-.86c2.73.472,5.4,2.289,6.078,4.975.848,3.362-5.118,8.55-7.922,10.589a91.978,91.978,0,0,1-8.523,5.033s.076-6.236-9.9-7.521C196.256,90.671,172.39,111.291,172.39,111.291Z" transform="translate(-172.39 -79.181)" fill="#d4e4fc"/></g></g><path d="M220.559,87.129a32.1,32.1,0,0,1,9.831-3.346,12.644,12.644,0,0,0-2.672-1.6,25.34,25.34,0,0,0-7.661,2.576Z" transform="translate(-66.159 -18.947)" fill="#e0e0e0"/><g transform="translate(77.229 135.101)"><g transform="translate(0)"><path d="M191.554,216.284l-10.8-2.379-4.391-1.1-3.66-5.673s-1.745,10.139-8.277,15.6A7.594,7.594,0,0,1,158,224.275c-1.48-.311-3.217-.694-4.505-1.038-.274-.074-.576-.17-.9-.286a21.053,21.053,0,0,1-11.116-9.591c-1.453-2.578-2.678-5.224-2.26-6.227l-5.124,10.614L103.9,231.655,86.757,273.516l33.223,9.827,1.034,34.492-6.258,43.5,94,.065-3.333-96.8" transform="translate(-86.757 -207.134)" fill="#d4e4fc"/><g transform="translate(71.287 20.112)"><path d="M219.909,268.609a3.355,3.355,0,0,1-.592.013l-1.671-.039-5.976-.213-.117,0,0-.118c-.1-2.594-.222-5.665-.35-8.951-.156-4.731-.3-9.011-.4-12.157-.036-1.526-.066-2.776-.087-3.686,0-.409-.006-.741-.009-1a1.529,1.529,0,0,1,.017-.35,1.543,1.543,0,0,1,.043.347c.017.261.038.592.064,1,.045.908.107,2.156.183,3.682.127,3.145.3,7.424.489,12.154.112,3.286.217,6.358.306,8.952l-.122-.122,5.971.319,1.669.11A3.406,3.406,0,0,1,219.909,268.609Z" transform="translate(-210.7 -242.101)" fill="#263238"/></g><g transform="translate(73.631 32.268)"><path d="M216.518,263.607a.783.783,0,0,1,.447-.146,1.834,1.834,0,0,1,1.239.344,1.894,1.894,0,0,1,.6.686,1.751,1.751,0,0,1,.164,1.045,2.119,2.119,0,0,1-1.536,1.733,2.233,2.233,0,0,1-2.186-.78,2.132,2.132,0,0,1-.412-1.859,2.3,2.3,0,0,1,.621-1.124c.221-.212.377-.28.385-.267s-.116.121-.3.346a2.415,2.415,0,0,0-.5,1.089,1.942,1.942,0,0,0,.416,1.639,1.984,1.984,0,0,0,1.9.667,1.867,1.867,0,0,0,1.333-1.484,1.569,1.569,0,0,0-.62-1.519,1.838,1.838,0,0,0-1.108-.4C216.684,263.576,216.526,263.632,216.518,263.607Z" transform="translate(-214.775 -263.236)" fill="#263238"/></g><g transform="translate(72.965 20.108)"><path d="M215.02,242.471a.923.923,0,0,1,.473-.215,2.045,2.045,0,0,1,1.4.206,2.072,2.072,0,0,1,.753.667,1.875,1.875,0,0,1,.311,1.122,2.245,2.245,0,0,1-1.517,2.04,2.3,2.3,0,0,1-2.4-.838,2.02,2.02,0,0,1-.416-1.084,2.319,2.319,0,0,1,1.064-2.084.973.973,0,0,1,.484-.186c.01.025-.163.089-.418.282a2.308,2.308,0,0,0-.771,1.072,1.886,1.886,0,0,0,.275,1.831,2.044,2.044,0,0,0,2.1.72,1.989,1.989,0,0,0,1.327-1.765,1.714,1.714,0,0,0-.891-1.591,2.047,2.047,0,0,0-1.28-.277C215.2,242.412,215.031,242.5,215.02,242.471Z" transform="translate(-213.618 -242.096)" fill="#263238"/></g><g transform="translate(71.304 16.149)"><path d="M210.73,285.971a.6.6,0,0,1,.144-.067l.431-.166c.385-.131.932-.373,1.631-.7a21.5,21.5,0,0,0,5.289-3.761,41.926,41.926,0,0,0,6.056-7.513,106.319,106.319,0,0,0,5.9-10.282,178.653,178.653,0,0,0,8.379-19.856c.942-2.6,1.673-4.707,2.184-6.163l.59-1.677.16-.434a.644.644,0,0,1,.064-.144.6.6,0,0,1-.035.154c-.035.116-.078.262-.133.443l-.537,1.7c-.478,1.468-1.178,3.591-2.1,6.2a166.036,166.036,0,0,1-8.311,19.92,102.917,102.917,0,0,1-5.938,10.3,41.168,41.168,0,0,1-6.142,7.516,20.818,20.818,0,0,1-5.383,3.712,15.41,15.41,0,0,1-1.66.648l-.442.139A.617.617,0,0,1,210.73,285.971Z" transform="translate(-210.73 -235.211)" fill="#263238"/></g><path d="M242.308,303.2c.247,0,5.969-.394,5.969-.394s-2.362,4.177-4.823,5.736h-5.007Z" transform="translate(-151.201 -247.781)" fill="#fafafa"/><g transform="translate(70.303 51.668)"><path d="M208.99,324.854a2.126,2.126,0,0,1,.326-.248l.965-.667c.835-.583,2.037-1.437,3.48-2.545,2.9-2.2,6.7-5.5,10.8-9.259,2.053-1.877,4.019-3.651,5.719-5.352A44.3,44.3,0,0,0,234.494,302a26.475,26.475,0,0,0,2.308-3.626c.25-.443.405-.806.529-1.044a2.2,2.2,0,0,1,.2-.361,2.073,2.073,0,0,1-.141.385c-.106.247-.246.619-.481,1.073a23.9,23.9,0,0,1-2.241,3.7,42.08,42.08,0,0,1-4.192,4.854c-1.7,1.719-3.661,3.5-5.713,5.378a141.329,141.329,0,0,1-10.871,9.207c-1.464,1.089-2.687,1.919-3.543,2.473-.428.278-.768.481-1,.621A2.044,2.044,0,0,1,208.99,324.854Z" transform="translate(-208.99 -296.967)" fill="#263238"/></g><g transform="translate(54.176 99.577)"><path d="M180.951,424.139a.6.6,0,0,1,.072-.135l.235-.38c.21-.331.533-.811.964-1.419.866-1.213,2.2-2.912,3.959-4.912,3.541-3.978,8.5-9.4,13.972-15.4l14.053-15.334,4.284-4.624,1.176-1.247.312-.319a.6.6,0,0,1,.113-.1.572.572,0,0,1-.091.123l-.289.339-1.135,1.285-4.214,4.688-13.988,15.394-14.035,15.343c-1.777,1.979-3.131,3.652-4.024,4.841-.444.6-.782,1.064-1.008,1.384l-.26.362A.567.567,0,0,1,180.951,424.139Z" transform="translate(-180.95 -380.264)" fill="#263238"/></g></g><path d="M267.661,222.536c.494.741,11.61,1.976,14.327,4.693S311.876,250.7,311.876,250.7l-19.355,26.1-12.507-2.753Z" transform="translate(-163.612 -213.677)" fill="#d4e4fc"/><path d="M322.8,267.14l-21.724,27.367,5.641,1.242,19.355-26.1Z" transform="translate(-177.809 -232.627)" fill="#435e77"/><g transform="translate(109.295 13.72)"><path d="M277.458,253.3a5.634,5.634,0,0,1-.225-.909,10.7,10.7,0,0,1-.19-1.082c-.055-.425-.14-.907-.168-1.447-.045-.538-.089-1.128-.085-1.764-.025-.636.018-1.314.049-2.029a26.123,26.123,0,0,1,2.236-8.982c.307-.646.587-1.265.907-1.815.294-.564.61-1.065.9-1.52s.579-.85.826-1.2a10.426,10.426,0,0,1,.676-.867,5.559,5.559,0,0,1,.625-.7,5.7,5.7,0,0,1-.533.769c-.182.239-.4.534-.631.893s-.521.748-.784,1.215-.58.96-.862,1.524c-.308.549-.577,1.166-.874,1.808a27.408,27.408,0,0,0-2.213,8.891c-.038.706-.09,1.378-.076,2.007-.015.63.016,1.215.047,1.75.014.536.084,1.016.123,1.441s.09.787.139,1.084A5.641,5.641,0,0,1,277.458,253.3Z" transform="translate(-276.783 -230.989)" fill="#263238"/></g><g transform="translate(114.133 46.745)"><path d="M289.728,299.137a113.2,113.2,0,0,1-4.53-10.73,113.375,113.375,0,0,1,4.53,10.73Z" transform="translate(-285.194 -288.407)" fill="#263238"/></g><g transform="translate(20.955 26.618)"><path d="M135.459,265.323c-.046.025-.511-.83-1.391-2.126a29.851,29.851,0,0,0-8.711-8.454c-1.322-.841-2.19-1.28-2.167-1.326a2.941,2.941,0,0,1,.633.263c.4.183.965.483,1.645.883a26.463,26.463,0,0,1,8.777,8.518c.42.668.737,1.222.932,1.618A2.992,2.992,0,0,1,135.459,265.323Z" transform="translate(-123.19 -253.414)" fill="#263238"/></g><path d="M86.757,320.141l1.335-3.26,36.758,10.007-1.458,4.09Z" transform="translate(-86.757 -253.759)" fill="#435e77"/><g transform="translate(48.204 11.533)"><path d="M170.566,227.53c.506,4.488,1.055,9.115,3.274,13.049s6.564,7.033,11.032,6.373c2.982-.44,5.507-2.435,7.537-4.662s3.73-4.761,5.946-6.8a26.09,26.09,0,0,0,4.462,3.84,8.77,8.77,0,0,0,5.6,1.475,3.8,3.8,0,0,0,3.645-2.875,9.143,9.143,0,0,1-5.3.148,14.5,14.5,0,0,1-6.278-2.886c-1.22-.961-1.659-2.4-3.21-2.314-1.432.083-2.554,1.217-3.5,2.3a40.191,40.191,0,0,1-4.989,4.811,8.4,8.4,0,0,1-5.589,2.236c-3.62-.079-6.583-2.921-8.581-5.941a29.784,29.784,0,0,1-4.021-9.092" transform="translate(-170.566 -227.186)" fill="#435e77"/></g><g transform="translate(75.729 6.28)"><path d="M233.25,218.053a1.323,1.323,0,0,1,.061.32c.028.212.074.523.112.927.086.806.173,1.976.207,3.426a48.887,48.887,0,0,1-1.076,11.26l-.018.092-.019.091-.09.022a12.256,12.256,0,0,1-6.2-.164,14.683,14.683,0,0,1-4.589-2.151,11.864,11.864,0,0,1-2.509-2.318,6.916,6.916,0,0,1-.544-.753,1.333,1.333,0,0,1-.165-.278,14.535,14.535,0,0,0,3.337,3.175,14.891,14.891,0,0,0,4.541,2.06,12.156,12.156,0,0,0,6.049.14l-.108.113.018-.091a52.606,52.606,0,0,0,1.156-11.195c-.006-1.444-.061-2.612-.111-3.419-.022-.376-.041-.684-.056-.929A1.348,1.348,0,0,1,233.25,218.053Z" transform="translate(-218.424 -218.053)" fill="#263238"/></g><g transform="translate(47.666 9.828)"><path d="M195.05,232.023a1.951,1.951,0,0,1-.184.345,9.6,9.6,0,0,1-.638.92,24.494,24.494,0,0,1-2.828,2.984c-.639.588-1.356,1.212-2.133,1.872-.391.329-.783.673-1.217,1.015a11.145,11.145,0,0,1-1.424.917,8.848,8.848,0,0,1-3.47,1.054,6.568,6.568,0,0,1-3.794-.839,12.09,12.09,0,0,1-2.975-2.506,28.908,28.908,0,0,1-5.17-8.18,27.834,27.834,0,0,1-1.29-3.9c-.12-.47-.193-.84-.239-1.092a1.879,1.879,0,0,1-.057-.385,1.945,1.945,0,0,1,.116.372c.065.247.157.611.293,1.075a31.849,31.849,0,0,0,1.372,3.851,29.692,29.692,0,0,0,5.192,8.066,11.95,11.95,0,0,0,2.9,2.442,6.3,6.3,0,0,0,3.626.808,8.631,8.631,0,0,0,3.361-1,10.981,10.981,0,0,0,1.394-.883c.422-.326.825-.672,1.216-1,.783-.65,1.505-1.263,2.151-1.838a27.609,27.609,0,0,0,2.879-2.9c.309-.371.531-.673.678-.881A1.937,1.937,0,0,1,195.05,232.023Z" transform="translate(-169.63 -224.222)" fill="#263238"/></g></g><g transform="translate(77.229 192.998)"><path d="M192.286,333.611l4.432-6.462s3.048-10.6,2.634-12.076-1.761-7.006-1.443-7.071,3.637-1.3,5.436,3.129a29,29,0,0,1,1.607,8.741,2.01,2.01,0,0,0,2.415,1.872c3.066-.628,8.167-1.589,9.377-1.3a6,6,0,0,1,3.489,3.416c.153.75-1.062,2.45-1.062,2.45a4.617,4.617,0,0,1,1.956,1.922c.062.156.116.311.162.46a2.791,2.791,0,0,1-.617,2.7l-.469.514s1.865.511,2.1,1.581a6.384,6.384,0,0,1-.064,2.356l-1.751,1.809a2.956,2.956,0,0,1,.908,1.712c.09.986-2.538,3.42-2.538,3.42l-11.278,4.043-4.474,1.142Z" transform="translate(-131.59 -307.795)" fill="#f8fcff"/><g transform="translate(79.781 18.507)"><path d="M233.3,339.991c.012.085-1.748.4-3.907.845s-3.9.832-3.927.749a4.371,4.371,0,0,1,1.112-.385c.7-.2,1.671-.437,2.755-.658s2.073-.38,2.793-.472A4.384,4.384,0,0,1,233.3,339.991Z" transform="translate(-225.469 -339.973)" fill="#dae8ef"/></g><g transform="translate(82.591 24.092)"><path d="M236.41,349.694a33.538,33.538,0,0,1-6.055,1.847,33.525,33.525,0,0,1,6.055-1.847Z" transform="translate(-230.354 -349.682)" fill="#dae8ef"/></g><g transform="translate(82.86 29.601)"><path d="M237.281,359.267a41.587,41.587,0,0,1-6.459,2.825,41.584,41.584,0,0,1,6.459-2.825Z" transform="translate(-230.821 -359.26)" fill="#dae8ef"/></g><path d="M121.464,381.246l41.479-27.827L152.48,334.462l-37.86,19.47,4.295-20.457-25.692-7.6-6.41,35h0c-.992,15.575,11.5,28.15,26.559,24.06h0A27.433,27.433,0,0,0,121.464,381.246Z" transform="translate(-86.757 -315.476)" fill="#f8fcff"/><g transform="translate(22.095 38.062)"><path d="M125.461,385.349a1.7,1.7,0,0,1-.143-.522,8.669,8.669,0,0,1-.144-1.467,10.185,10.185,0,0,1,4.2-8.419,8.715,8.715,0,0,1,1.258-.767,1.673,1.673,0,0,1,.5-.2c.025.048-.671.377-1.633,1.136a10.723,10.723,0,0,0-4.116,8.251C125.358,384.587,125.515,385.341,125.461,385.349Z" transform="translate(-125.172 -373.972)" fill="#dae8ef"/></g></g><g transform="translate(206.138 174.374)"><path d="M310.884,299.265c.26-.353,29.542,17.484,29.542,17.484l9.384,42.765,13.509,4.957s4.218-47.589,1.007-55-35.744-34.056-35.744-34.056Z" transform="translate(-310.884 -275.416)" fill="#f8fcff"/><g transform="translate(30.168 38.05)"><path d="M369.106,341.574a9.542,9.542,0,0,1-5.769,3.711,17.563,17.563,0,0,0,5.769-3.711Z" transform="translate(-363.336 -341.572)" fill="#dae8ef"/></g></g><path d="M249.657,315.681l2.292,41.042,46.8-3.163-1.416-30.553-6.812-9.171Z" transform="translate(-78.735 -117.364)" fill="#263238"/><path d="M231.158,386.244c.142.789,4.114,37.962,4.114,37.962l69.645-4.844,11.788-1.577-5.435-34.617-8.327-1.993Z" transform="translate(-70.875 -145.972)" fill="#d4e4fc"/><path d="M302.944,381.175l-71.786,5.069c.142.789,4.114,37.962,4.114,37.962l72.509-5.043Z" transform="translate(-70.875 -145.972)" fill="#6db693"/><path d="M291.729,354.034l-39.78,2.689-2.292-41.042,40.858-1.844Z" transform="translate(-78.735 -117.364)" fill="#435e77"/><path d="M275.444,315.617l.838,12.649,2.128-1.218,1.182,1.218,1.464-1.218,2.265,1.218v-13Z" transform="translate(-89.69 -117.969)" fill="#fdfeff"/><path d="M294.033,396.694l-.23-11.472-9.306.629,1,11.65Z" transform="translate(-93.536 -147.692)" fill="#d4e4fc"/><g transform="translate(215.01 254.906)"><rect width="15.682" height="13.873" transform="translate(0.179 1.618) rotate(-5.416)" fill="#fafafa"/><path d="M343.411,429.382a2.1,2.1,0,0,1-.039-.265c-.022-.189-.05-.437-.086-.747-.072-.672-.173-1.617-.3-2.81-.246-2.426-.594-5.856-1.011-9.977l.138.115L326.5,417.2c-.031.035.254-.308.133-.161v.011l0,.015,0,.029.005.059.012.117.022.235.044.468q.045.468.088.931.088.927.174,1.837.17,1.82.334,3.561c.215,2.317.419,4.514.608,6.548l-.144-.119,11.266-1,3.2-.268.854-.066a2.6,2.6,0,0,1,.3-.014,1.762,1.762,0,0,1-.273.041l-.825.094-3.164.335-11.338,1.142-.131.013-.013-.132-.634-6.545-.341-3.56q-.086-.91-.175-1.837-.044-.463-.089-.93l-.044-.468-.022-.235-.011-.118-.006-.059,0-.029v-.026c-.121.144.164-.2.136-.166l15.613-1.457.127-.012.011.126c.367,4.159.673,7.621.889,10.069.1,1.184.176,2.121.231,2.788.022.3.04.542.054.726A1.46,1.46,0,0,1,343.411,429.382Z" transform="translate(-326.31 -415.433)" fill="#263238"/><g transform="translate(2.349 3.43)"><path d="M342.616,421.414c.009.082-2.721.437-6.095.793s-6.118.577-6.127.495,2.72-.437,6.1-.793S342.607,421.332,342.616,421.414Z" transform="translate(-330.394 -421.397)" fill="#263238"/></g><g transform="translate(2.798 5.783)"><path d="M342.858,425.5a8.912,8.912,0,0,1-1.678.415c-1.047.209-2.5.451-4.119.641s-3.09.29-4.157.33a8.957,8.957,0,0,1-1.729-.016,11.053,11.053,0,0,1,1.715-.2c1.061-.093,2.523-.227,4.135-.416s3.066-.4,4.118-.552A11.059,11.059,0,0,1,342.858,425.5Z" transform="translate(-331.175 -425.488)" fill="#263238"/></g><g transform="translate(3.457 10.914)"><path d="M344,434.419a8.9,8.9,0,0,1-1.678.415c-1.046.209-2.5.451-4.119.641s-3.09.291-4.157.33a8.948,8.948,0,0,1-1.728-.016,11.055,11.055,0,0,1,1.715-.2c1.06-.093,2.523-.227,4.135-.416s3.066-.4,4.118-.552A11.067,11.067,0,0,1,344,434.419Z" transform="translate(-332.321 -434.409)" fill="#263238"/></g><g transform="translate(2.926 8.282)"><path d="M342.825,429.845a111.131,111.131,0,0,1-11.427,1.633,111.195,111.195,0,0,1,11.427-1.633Z" transform="translate(-331.398 -429.832)" fill="#263238"/></g></g><g transform="translate(224.309 257.741)"><path d="M361.316,447.21s12.854-8.5,13.843-12.854,1.582-8.305,1.582-8.305l-13.733-5.688,1.362,4.949s-4.924,2.928-5.427,6.475c-.335,2.366-6.7,6.41-6.7,6.41h0a5.256,5.256,0,0,0-4.417-1.889l-5.349.377,3.613,8.153Z" transform="translate(-342.477 -420.362)" fill="#f8fcff"/><g transform="translate(9.4 15.186)"><path d="M373.283,446.77a2.1,2.1,0,0,1-.608.247c-.4.133-1,.265-1.7.5a6.986,6.986,0,0,0-2.232,1.3,11.119,11.119,0,0,1-2.747,1.744,9.306,9.306,0,0,1-5.83.489,3.077,3.077,0,0,1-.975-.362.714.714,0,0,1-.355-.712.527.527,0,0,1,.289-.415c.114-.043.178-.017.176-.01s-.061.012-.149.064a.483.483,0,0,0-.2.376.585.585,0,0,0,.331.557,3.092,3.092,0,0,0,.931.3,9.55,9.55,0,0,0,5.666-.558,11.419,11.419,0,0,0,2.7-1.688,6.881,6.881,0,0,1,2.336-1.278c.731-.211,1.329-.309,1.736-.407A3.95,3.95,0,0,1,373.283,446.77Z" transform="translate(-358.82 -446.766)" fill="#dae8ef"/></g><g transform="translate(3.782 15.945)"><path d="M360.229,453.928c-.025.043-.66-.335-1.755-.786a15.814,15.814,0,0,0-4.459-1.11c-.45-.048-.891-.061-1.318-.071l-.081,0-.041-.066a13.892,13.892,0,0,0-2.392-2.823c-.691-.625-1.154-.948-1.13-.983a1.148,1.148,0,0,1,.357.187,9.371,9.371,0,0,1,.9.652,12.2,12.2,0,0,1,2.515,2.808l-.123-.067c.434.006.886.017,1.345.067a14.046,14.046,0,0,1,4.514,1.214,11.82,11.82,0,0,1,1.25.67A1.727,1.727,0,0,1,360.229,453.928Z" transform="translate(-349.052 -448.086)" fill="#dae8ef"/></g><g transform="translate(14.736 19.436)"><path d="M371.792,454.169c.026.084-.871.408-1.881.986s-1.752,1.175-1.811,1.109a6.266,6.266,0,0,1,3.691-2.1Z" transform="translate(-368.098 -454.154)" fill="#dae8ef"/></g><g transform="translate(21.669 3.99)"><path d="M383.876,427.47c-.011.09-.892-.019-1.92.257s-1.747.786-1.8.714a3.721,3.721,0,0,1,3.722-.971Z" transform="translate(-380.151 -427.299)" fill="#dae8ef"/></g></g></g></svg>