<svg xmlns="http://www.w3.org/2000/svg" width="13.099" height="13.099" viewBox="0 0 13.099 13.099"><g transform="translate(0 0)"><path d="M7.24,14.444a.655.655,0,0,1-.655.655H3.965A1.965,1.965,0,0,1,2,13.134v-2.62a.655.655,0,1,1,1.31,0v2.62a.655.655,0,0,0,.655.655h2.62A.655.655,0,0,1,7.24,14.444ZM2.655,7.24a.655.655,0,0,0,.655-.655V3.965a.655.655,0,0,1,.655-.655h2.62a.655.655,0,0,0,0-1.31H3.965A1.965,1.965,0,0,0,2,3.965v2.62A.655.655,0,0,0,2.655,7.24ZM4.62,5.93v5.24a1.31,1.31,0,0,0,1.31,1.31h5.24a1.31,1.31,0,0,0,1.31-1.31V5.93a1.31,1.31,0,0,0-1.31-1.31H5.93A1.31,1.31,0,0,0,4.62,5.93ZM13.134,2h-2.62a.655.655,0,1,0,0,1.31h2.62a.655.655,0,0,1,.655.655v2.62a.655.655,0,0,0,1.31,0V3.965A1.965,1.965,0,0,0,13.134,2Zm1.31,7.859a.655.655,0,0,0-.655.655v2.62a.655.655,0,0,1-.655.655h-2.62a.655.655,0,1,0,0,1.31h2.62A1.965,1.965,0,0,0,15.1,13.134v-2.62A.655.655,0,0,0,14.444,9.859Z" transform="translate(-2 -2)" fill="#fff"/></g></svg>