<svg xmlns="http://www.w3.org/2000/svg" xmlns:xlink="http://www.w3.org/1999/xlink" width="17.336" height="17.722" viewBox="0 0 17.336 17.722"><defs><linearGradient id="a" x1="0.5" x2="0.5" y2="1" gradientUnits="objectBoundingBox"><stop offset="0" stop-color="#67b565"/><stop offset="0.201" stop-color="#5cb36a"/><stop offset="0.997" stop-color="#34ac80"/></linearGradient></defs><path d="M17.4,23.885a7.189,7.189,0,0,0,7.185,7.185,7.106,7.106,0,0,0,4.125-1.3l4.364,4.364a.964.964,0,0,0,1.384,0,1,1,0,0,0,0-1.384l-4.311-4.311A7.185,7.185,0,1,0,17.4,23.885Zm1.57,0A5.615,5.615,0,1,1,24.585,29.5,5.633,5.633,0,0,1,18.97,23.885Z" transform="translate(-17.4 -16.7)" fill="url(#a)"/></svg>